<svg id="visual" viewBox="0 0 960 540" width="960" height="540" xmlns="http://www.w3.org/2000/svg" xmlns:xlink="http://www.w3.org/1999/xlink" version="1.1"><rect x="0" y="0" width="960" height="540" fill="#ffffff"></rect><path d="M0 333L14.5 330.5C29 328 58 323 87.2 330.7C116.3 338.3 145.7 358.7 174.8 372.5C204 386.3 233 393.7 262 384C291 374.3 320 347.7 349 347.5C378 347.3 407 373.7 436.2 371.8C465.3 370 494.7 340 523.8 329.7C553 319.3 582 328.7 611 334.8C640 341 669 344 698 343.2C727 342.3 756 337.7 785.2 330.7C814.3 323.7 843.7 314.3 872.8 315.7C902 317 931 329 945.5 335L960 341L960 541L945.5 541C931 541 902 541 872.8 541C843.7 541 814.3 541 785.2 541C756 541 727 541 698 541C669 541 640 541 611 541C582 541 553 541 523.8 541C494.7 541 465.3 541 436.2 541C407 541 378 541 349 541C320 541 291 541 262 541C233 541 204 541 174.8 541C145.7 541 116.3 541 87.2 541C58 541 29 541 14.5 541L0 541Z" fill="#BFF0B0" stroke-linecap="round" stroke-linejoin="miter"></path></svg>